# AST/ASF file generated using VICON BodyLanguage
# -----------------------------------------------
:version 1.10
:name VICON
:units
  mass 1.0
  length 0.45
  angle deg
:documentation
   .ast/.asf automatically generated from VICON data using
   VICON BodyBuilder and BodyLanguage model FoxedUp or BRILLIANT.MOD
:root
   order TX TY TZ RX RY RZ
   axis XYZ
   position 0 0 0  
   orientation 0 0 0 
:bonedata
  begin
     id 1 
     name lhipjoint
     direction 0.646657 -0.683706 0.338203 
     length 2.4948 
     axis 0 0 0  XYZ
  end
  begin
     id 2 
     name lfemur
     direction 0.34202 -0.939693 0  
     length 6.79491  
     axis 0 0 20  XYZ
    dof rx ry rz
    limits (-160.0 20.0)
           (-70.0 70.0)
           (-60.0 70.0)
  end
  begin
     id 3 
     name ltibia
     direction 0.34202 -0.939693 0   
     length 7.56807   
     axis 0 0 20   XYZ
    dof rx
    limits (-10.0 170.0)
  end
  begin
     id 4 
     name lfoot
     direction 0.0679796 -0.186772 0.980048   
     length 2.53018   
     axis -90 7.62852e-016 20   XYZ
    dof rx rz
    limits (-45.0 90.0)
           (-70.0 20.0)
  end
  begin
     id 5 
     name ltoes
     direction 1.53625e-011 -4.21881e-011 1   
     length 1.26912   
     axis -90 7.62852e-016 20   XYZ
    dof rx
    limits (-90.0 20.0)
  end
  begin
     id 6 
     name rhipjoint
     direction -0.618868 -0.704065 0.348274   
     length 2.42265  
     axis 0 0 0  XYZ 
  end
  begin
     id 7 
     name rfemur
     direction -0.34202 -0.939693 0   
     length 6.73814   
     axis 0 0 -20   XYZ
    dof rx ry rz
    limits (-160.0 20.0)
           (-70.0 70.0)
           (-70.0 60.0)
  end
  begin
     id 8 
     name rtibia
     direction -0.34202 -0.939693 0   
     length 7.66799   
     axis 0 0 -20   XYZ
    dof rx
    limits (-10.0 170.0)
 end
 begin
     id 9 
     name rfoot
     direction -0.0727352 -0.199838 0.977125   
     length 2.57224  
     axis -90 -7.62852e-016 -20   XYZ
    dof rx rz
    limits (-45.0 90.0)
           (-20.0 70.0)
  end
  begin
     id 10 
     name rtoes
     direction -1.53501e-011 -4.21858e-011 1   
     length 1.28858   
     axis -90 -7.62852e-016 -20   XYZ
    dof rx
    limits (-90.0 20.0)
  end
  begin
     id 11 
     name lowerback
     direction -0.0172471 0.995767 -0.0902851   
     length 2.20206   
     axis 0 0 0   XYZ
    dof rx ry rz
    limits (-20.0 45.0)
           (-30.0 30.0)
           (-30.0 30.0)
  end
  begin
     id 12 
     name upperback
     direction -0.000110737 0.999714 0.0239043   
     length 2.19523   
     axis 0 0 0   XYZ
    dof rx ry rz
    limits (-20.0 45.0)
           (-30.0 30.0)
           (-30.0 30.0)
  end
  begin
     id 13 
     name thorax
     direction 0.00704869 0.997783 0.0661741   
     length 2.21977   
     axis 0 0 0   XYZ
    dof rx ry rz
    limits (-20.0 45.0)
           (-30.0 30.0)
           (-30.0 30.0)
  end
  begin
     id 14 
     name lowerneck
     direction -0.00407501 0.995527 0.0943846   
     length 1.83142   
     axis 0 0 0   XYZ
    dof rx ry rz
    limits (-20.0 45.0)
           (-30.0 30.0)
           (-30.0 30.0)
  end
  begin
     id 15 
     name upperneck
     direction 0.0640586 0.986486 -0.150807   
     length 1.84616   
     axis 0 0 0   XYZ
    dof rx ry rz
    limits (-20.0 45.0)
           (-30.0 30.0)
           (-30.0 30.0)
  end
  begin
     id 16
     name head
     direction 0.0188017 0.99791 -0.0618239  
     length 1.85932  
     axis 0 0 0   XYZ
    dof rx ry rz
    limits (-20.0 45.0)
           (-30.0 30.0)
           (-30.0 30.0)
  end
  begin
     id 17 
     name lclavicle
     direction 0.976074 0.206905 0.066852  
     length 3.81043  
     axis 0 0 0   XYZ
    dof ry rz
    limits (-20.0 10.0)
           (0.0 20.0)
  end
  begin
     id 18 
     name lhumerus
     direction 1 -4.48971e-011 1.86916e-027   
     length 5.37587   
     axis 180 -30 -90   XYZ
    dof rx ry rz
    limits (-60.0 90.0)
           (-90.0 90.0)
           (-90.0 90.0)
  end
  begin
     id 19
     name lradius
     direction 1 -4.48968e-011 1.69187e-027   
     length 3.35977   
     axis 180 -30 -90   XYZ
    dof rx
    limits (-10.0 170.0)
  end
  begin
     id 20
     name lwrist
     direction 1 -4.48968e-011 5.8978e-027   
     length 1.67988   
     axis -3.27506e-015 90 90   XYZ
    dof ry
    limits (-180.0 0.0)
 end
  begin
     id 21 
     name lhand
     direction 1 -4.49028e-011 1.18071e-026   
     length 0.561859   
     axis -7.52654e-015 90 90   XYZ
    dof rx rz
    limits (-90.0 90.0)
           (-45.0 45.0)
  end
  begin
     id 22 
     name lfingers
     direction 1 -4.48927e-011 2.35758e-026   
     length 0.452985   
     axis -1.50534e-014 90 90   XYZ
    dof rx
    limits (0.0 90.0)
  end
  begin
     id 23
     name lthumb
     direction 0.707107 -6.34898e-011 0.707107   
     length 0.650399   
     axis -90 45 5.69224e-014   XYZ
    dof rx rz
    limits (-45.0 45.0)
           (-45.0 45.0)
  end
  begin
     id 24 
     name rclavicle
     direction -0.988403 0.151789 0.00439714   
     length 3.6942  
     axis 0 0 0   XYZ 
    dof ry rz
    limits (-10.0 20.0)
           (-20.0 0.0)
  end
  begin
     id 25 
     name rhumerus
     direction -1 -4.48978e-011 1.62495e-027  
     length 5.22819   
     axis 180 30 90   XYZ
    dof rx ry rz
    limits (-90.0 60.0)
           (-90.0 90.0)
           (-90.0 90.0)
  end
  begin
     id 26 
     name rradius
     direction -1 -4.48961e-011 3.47796e-027   
     length 3.40764   
     axis 180 30 90   XYZ
    dof rx
    limits (-10.0 170.0)
  end
  begin
     id 27 
     name rwrist
     direction -1 -4.48949e-011 5.89602e-027   
     length 1.70382   
     axis -3.27506e-015 -90 -90   XYZ
    dof ry
    limits (-180.0 0.0)
  end
  begin
     id 28
     name rhand
     direction -1 -4.48977e-011 1.17973e-026   
     length 0.583255   
     axis -7.52654e-015 -90 -90   XYZ
    dof rx rz
    limits (-90.0 90.0)
           (-45.0 45.0)
  end
  begin
     id 29
     name rfingers
     direction -1 -4.49099e-011 2.36408e-026   
     length 0.470235   
     axis -1.50534e-014 -90 -90   XYZ
    dof rx
    limits (0.0 90.0)
  end
  begin
     id 30
     name rthumb
     direction -0.707107 -6.35011e-011 0.707107   
     length 0.675167   
     axis -90 -45 -5.69224e-014   XYZ
    dof rx rz
    limits (-45.0 45.0)
           (-45.0 45.0)
  end
:hierarchy
  begin
    root lhipjoint rhipjoint lowerback
    lhipjoint lfemur
    lfemur ltibia
    ltibia lfoot
    lfoot ltoes
    rhipjoint rfemur
    rfemur rtibia
    rtibia rfoot
    rfoot rtoes
    lowerback upperback
    upperback thorax
    thorax lowerneck lclavicle rclavicle
    lowerneck upperneck
    upperneck head
    lclavicle lhumerus
    lhumerus lradius
    lradius lwrist
    lwrist lhand lthumb
    lhand lfingers
    rclavicle rhumerus
    rhumerus rradius
    rradius rwrist
    rwrist rhand rthumb
    rhand rfingers
  end

#!OML:ASF G:\JayActor3\Patient Classification 1\Patient 1\Session 2\male.ASF
:FULLY-SPECIFIED
:DEGREES
579
root -18.9684 16.6102 -6.55155 938.864 -83.2655 -941.214
lowerback 2.41196 -2.4681 -6.88851
upperback 1.86891 -3.45285 -1.33081
thorax 0.900956 -1.81445 2.52306
lowerneck -12.1628 2.14633 0.26155
upperneck 15.7738 1.37424 7.38336
head 6.77291 1.2358 2.45789
rclavicle -6.84068e-014 -2.64384e-014
rhumerus -62.9759 14.0475 -80.564
rradius 29.644
rwrist 1.01577
rhand -10.3609 0.804224
rfingers 7.12502
rthumb 15.6361 -28.5839
lclavicle -6.84068e-014 -2.64384e-014
lhumerus -14.2112 -27.8042 86.3736
lradius 78.433
lwrist 15.6071
lhand -11.3049 15.1981
lfingers 7.12502
lthumb 14.7268 44.655
rfemur -40.2181 2.77339 16.4822
rtibia 39.0004
rfoot -23.6876 -3.25474
rtoes -2.74684
lfemur 26.0627 9.2101 -26.3308
ltibia -3.49861e-014
lfoot -6.36941 5.89055
ltoes -14.7092
580
root -19.2187 16.5707 -6.55354 942.565 -83.2895 -944.708
lowerback 2.13037 -2.6151 -7.1216
upperback 1.87756 -3.625 -1.19932
thorax 1.10837 -1.90951 2.77154
lowerneck -12.1097 2.1349 0.311824
upperneck 15.6213 1.36623 7.35806
head 6.71581 1.22962 2.43689
rclavicle -8.11352e-014 -1.55052e-014
rhumerus -63.4035 14.0235 -79.8964
rradius 29.8819
rwrist 0.746054
rhand -10.215 0.78408
rfingers 7.12502
rthumb 15.7766 -28.593
lclavicle -8.11352e-014 -1.55052e-014
lhumerus -14.0377 -28.1553 85.9549
lradius 80.0302
lwrist 15.7007
lhand -11.1382 15.0819
lfingers 7.12502
lthumb 14.8874 44.527
rfemur -40.3294 3.86375 15.4511
rtibia 36.1437
rfoot -23.4546 -3.24327
rtoes -1.85148
lfemur 26.7469 9.41835 -26.3034
ltibia -3.81667e-014
lfoot -6.2184 5.03548
ltoes -15.6805
581
root -19.4722 16.5295 -6.55662 947.073 -83.3023 -948.984
lowerback 1.79253 -2.77627 -7.3975
upperback 1.87942 -3.8107 -1.08039
thorax 1.34626 -2.01321 3.02586
lowerneck -12.0504 2.10093 0.361382
upperneck 15.4758 1.33081 7.31332
head 6.66117 1.20857 2.40737
rclavicle -1.44492e-014 8.79622e-015
rhumerus -63.7648 13.9138 -79.174
rradius 30.0777
rwrist 0.501002
rhand -10.0902 0.7335
rfingers 7.12502
rthumb 15.8968 -28.634
lclavicle -1.44492e-014 8.79622e-015
lhumerus -13.9254 -28.4113 85.6138
lradius 81.3295
lwrist 16.0372
lhand -10.8916 15.0331
lfingers 7.12502
lthumb 15.1249 44.4604
rfemur -40.511 4.83799 14.3115
rtibia 33.739
rfoot -23.1234 -3.23331
rtoes -0.356632
lfemur 27.4049 9.54424 -26.3276
ltibia -4.77083e-014
lfoot -5.99861 4.21857
ltoes -16.5201
582
root -19.7284 16.4866 -6.55993 952.159 -83.2894 -953.829
lowerback 1.42218 -2.94481 -7.68743
upperback 1.8732 -4.00197 -0.970757
thorax 1.59782 -2.12073 3.27439
lowerneck -11.9958 2.0458 0.419805
upperneck 15.354 1.2689 7.23599
head 6.61624 1.1731 2.36414
rclavicle -1.62126e-014 9.98893e-015
rhumerus -64.06 13.724 -78.4082
rradius 30.2075
rwrist 0.326997
rhand -10.0268 0.695644
rfingers 7.12502
rthumb 15.9578 -28.667
lclavicle -1.62126e-014 9.98893e-015
lhumerus -13.8821 -28.5828 85.3647
lradius 82.3011
lwrist 16.6231
lhand -10.5472 15.0648
lfingers 7.12502
lthumb 15.4566 44.4669
rfemur -40.7523 5.575 13.1794
rtibia 31.8619
rfoot -22.6894 -3.25037
rtoes 1.27013
lfemur 28.0517 9.60402 -26.3823
ltibia -2.22639e-014
lfoot -5.69996 3.45041
ltoes -17.2386
583
root -19.9871 16.4413 -6.56258 957.554 -83.2518 -958.998
lowerback 1.05422 -3.1146 -7.95364
upperback 1.85681 -4.19353 -0.864796
thorax 1.83831 -2.22798 3.50412
lowerneck -11.929 1.97484 0.488447
upperneck 15.2603 1.18783 7.12376
head 6.57913 1.12635 2.30673
rclavicle 2.31274e-014 5.96354e-015
rhumerus -64.2983 13.4765 -77.6238
rradius 30.2529
rwrist 0.240205
rhand -10.0218 0.679465
rfingers 7.12502
rthumb 15.9626 -28.6828
lclavicle 2.31274e-014 5.96354e-015
lhumerus -13.935 -28.6929 85.2269
lradius 82.9284
lwrist 17.3723
lhand -10.1342 15.1679
lfingers 7.12502
lthumb 15.8544 44.5388
rfemur -41.0094 6.01558 12.1499
rtibia 30.5395
rfoot -22.2143 -3.19061
rtoes 3.09503
lfemur 28.717 9.61062 -26.4345
ltibia -2.22639e-014
lfoot -5.31451 2.74075
ltoes -17.7985
584
root -20.2475 16.3925 -6.56421 962.922 -83.2018 -964.177
lowerback 0.725511 -3.2784 -8.15962
upperback 1.83031 -4.37975 -0.749778
thorax 2.0441 -2.33061 3.71081
lowerneck -11.8443 1.89626 0.552752
upperneck 15.1961 1.10034 6.98456
head 6.54843 1.07426 2.24116
rclavicle 5.438e-014 1.8487e-014
rhumerus -64.4773 13.2029 -76.8474
rradius 30.1953
rwrist 0.235734
rhand -10.0834 0.703056
rfingers 7.12502
rthumb 15.9033 -28.6639
lclavicle 5.438e-014 1.8487e-014
lhumerus -14.0992 -28.75 85.2155
lradius 83.2089
lwrist 18.1503
lhand -9.6768 15.3271
lfingers 7.12502
lthumb 16.2949 44.6624
rfemur -41.2173 6.15949 11.3079
rtibia 29.7375
rfoot -21.7421 -3.08504
rtoes 4.82779
lfemur 29.426 9.58396 -26.4404
ltibia 7.63333e-014
lfoot -4.82654 2.09852
ltoes -18.2174
